<svg id="Layer_1" data-name="Layer 1" xmlns="http://www.w3.org/2000/svg" xmlns:xlink="http://www.w3.org/1999/xlink" viewBox="0 0 500 500"><defs><style>.cls-1{fill:#fff;}.cls-2{fill-rule:evenodd;fill:url(#linear-gradient);}</style><linearGradient id="linear-gradient" x1="218.32" y1="-420.49" x2="222.82" y2="-420.29" gradientTransform="translate(-18078.65 8019.37) scale(83.04 18.48)" gradientUnits="userSpaceOnUse"><stop offset="0" stop-color="#7f28c4"/><stop offset="0.64" stop-color="#e2197c"/><stop offset="1" stop-color="#e5231b"/></linearGradient></defs><rect class="cls-1" width="500" height="500"/><path class="cls-2" d="M115.77,240.36l-7.12,14.86a70.12,70.12,0,0,1,16.88,5.46l-9.73-20.32Zm177.32-14.87c-13.89,0-25.19,11-25.19,24.46s11.3,24.42,25.19,24.42,25.24-11,25.24-24.42S307,225.48,293.09,225.48ZM170.41,214.94a11.47,11.47,0,0,1,10.37,6.51l19.66,41.45L220,221.48a11.46,11.46,0,0,1,10.37-6.54h9.79l-35.76,74h-7.89l-35.76-74Zm122.65-3.89c11.31,0,21.3,3.85,28.89,11.13A38,38,0,0,1,334,250a37.31,37.31,0,0,1-12.09,27.6,41.54,41.54,0,0,1-28.82,11.35,41.09,41.09,0,0,1-28.89-11.38,38.14,38.14,0,0,1-1.43-53.93c.47-.49.94-1,1.43-1.43,7.64-7.27,17.63-11.11,28.89-11.11Zm76.81,3.89,39.78,46.81v-39a7.91,7.91,0,0,1,8-7.8H425v74h-3.34c-9.33,0-15.7-8.23-15.7-8.23l-32.61-38.5v38.94a7.9,7.9,0,0,1-8,7.8H358v-74Zm-250.2,0,36.8,74H139.33c-11-14.58-23.11-19.61-36.82-21.27l-7.72,14.8c-2.63,4.32-6.45,6.5-10.9,6.5H75l36.71-74Z"/></svg>