<svg id="Layer_1" data-name="Layer 1" xmlns="http://www.w3.org/2000/svg" viewBox="0 0 500 500"><defs><style>.cls-1{fill:#fff;}.cls-2{fill:#010101;}</style></defs><rect class="cls-1" width="500" height="500"/><path d="M147.15,135.15c33.57,11.68,67,23.89,100.61,35.33a4.76,4.76,0,0,0,3.56,0c33.59-11.5,67-23.61,100.47-35.33q-17.84,28.42-36,56.62c-5.61-2.42-11.4-4.43-17.05-6.74,3.27-5.77,6.8-11.41,10.12-17.15C298,173.32,287,178.38,276.24,184c7.51,2.86,15,5.67,22.49,8.69,4.15,1.69,8.61,5,8.89,9.83.66,5.41-3,9.84-5.65,14.17-16.19,25.33-32.29,50.73-48.55,76,.09-6.67-.68-13.41.11-20,6.4-20.31,12.72-40.64,18.55-61.12,1.14-3-2.26-4.67-4.45-5.74-6.17-2.73-12-6.34-18.28-8.68-6.41,2.78-12.56,6.13-18.85,9.18-1.94.89-4.68,2.67-3.57,5.21,5.78,20.48,12.17,40.81,18.53,61.13.7,6.63,0,13.37.06,20.05q-24-37.59-48-75.22c-2.78-4.62-6.83-9.33-6.13-15.09.37-4.84,4.8-8,9-9.74,7.39-3,14.89-5.76,22.33-8.66C212,178.4,201,173.29,190.21,167.89c3.31,5.75,6.83,11.37,10.1,17.15-5.69,2.27-11.45,4.37-17.12,6.69q-18.15-28.2-36-56.58Zm71.14,229.3c.11-11.07-.08-22.12.1-33.19,18.21.12,36.43,0,54.64.06,3.56-.12,7.71,1.66,8.42,5.5a60.52,60.52,0,0,1,.07,11.34c-.23,4.16-4.58,6.67-8.42,6.4-14.86,0-29.71,0-44.57,0,0,3.33,0,6.64.06,10-3.43.09-6.87.05-10.3-.08m10.2-25.68c0,2.58.07,5.16.13,7.75,14.1-.13,28.2.13,42.3-.12,2.56-1.48.82-5,1.3-7.42-14.56-.49-29.15-.1-43.73-.21Z"/><path class="cls-2" d="M75.62,336.36c1.46-3.3,5.24-5.14,8.76-5.06,17.85,0,35.7,0,53.56,0,0,3.05.05,6.12.07,9.17-17.49.12-35-.16-52.49.14-.32.25-1,.78-1.29,1.05-.2,4.39,0,8.8-.13,13.2a16.9,16.9,0,0,0,4.84.73c16.34,0,32.69,0,49,0q0,4.43,0,8.86c-17.12.49-34.27.06-51.39.24-4.2.17-9.41-.64-11.07-5.13-.91-4-.28-8.09-.45-12.12.06-3.66-.48-7.43.53-11Zm70.9,20c0-8.37-.05-16.75,0-25.11,3.66,0,7.33,0,11,.05.12,8-.14,16.07.16,24.1,13.58.27,27.18.11,40.76.09.56-8.06.14-16.15.26-24.21,3.71,0,7.41,0,11.12-.05.07,8.36.1,16.74,0,25.11,0,4.49-4.21,8.24-8.6,8.16-12.76.38-25.52-.12-38.29.1-3.68,0-7.43.22-11-.69C148.91,362.79,146.35,359.77,146.52,356.39Zm143.63-25.11c17.89,0,35.77,0,53.66,0,3.86-.08,8.41,1.93,9.37,6a78.23,78.23,0,0,1,0,11.25c-.56,3.14-3.33,4.79-5.87,6.25,2.42,3.08,4.58,6.34,6.76,9.6-4.43-.28-11.14,2.37-13.61-2.64-1.48-2.36-2.89-4.76-4.32-7.14-11.82-.1-23.65-.05-35.47,0,0,3.25,0,6.51.07,9.77a67.14,67.14,0,0,1-10.61.09c.05-11.05-.05-22.11,0-33.17m10.62,7.12c-.09,2.69-.09,5.4-.08,8.09,14-.1,27.95.19,41.9-.13l1.41-1c-.2-2.27,1.15-5.7-1.56-6.82-13.88-.29-27.78,0-41.67-.13Zm61.17,1.13c-.15-5.06,5.14-8.59,9.83-8.24,17.72,0,35.44,0,53.15,0,.06,11.06.2,22.13-.13,33.18a55,55,0,0,1-9.25.05c-1.39-2.91-.22-6.7-.55-9.93H372.28c0,3.33,0,6.66,0,10-3.44.09-6.88,0-10.32-.11.11-8.3-.21-16.61,0-24.92m10.38-.66c0,2.55,0,5.09,0,7.65,14.19-.07,28.39,0,42.59,0,0-2.57,0-5.13.07-7.7-14.23,0-28.45-.15-42.68.08Z"/></svg>