<svg id="Layer_1" data-name="Layer 1" xmlns="http://www.w3.org/2000/svg" viewBox="0 0 128 128"><defs><style>.cls-1{fill:#0f33ff;}.cls-2{fill:#fff;}</style></defs><path class="cls-1" d="M97.15,68.51c0,7.35.24,14.71-.06,22-.35,8.69-2.72,16.82-8.24,23.79A30.21,30.21,0,0,1,68.28,126.1c-10,1.26-19.3-.37-27.68-6.18a27,27,0,0,1-8.49-9,10.81,10.81,0,0,1,7.33-15.89c4.36-.79,8,1.08,11.07,4a17.09,17.09,0,0,0,10.32,5.09c6.34.63,11.18-1.73,13-8.24A40.41,40.41,0,0,0,75,86c.14-12.9,0-25.81.07-38.71,0-5.75,3-9.85,8-11.31a11,11,0,0,1,14,10.31c.07,7.41,0,14.82,0,22.22Z"/><path class="cls-2" d="M97.27,12.76A11.16,11.16,0,1,1,75,12.58a11.16,11.16,0,1,1,22.32.18Z"/></svg>