<?xml version="1.0" encoding="utf-8"?>
<!-- Generator: Adobe Illustrator 26.2.1, SVG Export Plug-In . SVG Version: 6.00 Build 0)  -->
<svg version="1.1" id="Layer_1" xmlns="http://www.w3.org/2000/svg" xmlns:xlink="http://www.w3.org/1999/xlink" x="0px" y="0px"
	 viewBox="0 0 1920 1080" style="enable-background:new 0 0 1920 1080;" xml:space="preserve">
<style type="text/css">
	.st0{fill:#FFFFFF;stroke:#000000;stroke-miterlimit:10;}
	.st1{fill:#4285F4;}
	.st2{fill:#34A853;}
	.st3{fill:#FBBC02;}
	.st4{fill:#EA4335;}
</style>
<rect class="st0" width="1920" height="1080"/>
<path class="st1" d="M1248.7,977.4c100.1-93.4,144.6-249.2,117.9-398.2H968.4v164.6h226.9c-8.9,53.4-40,97.9-84.5,126.8
	L1248.7,977.4z"/>
<path class="st2" d="M590.2,846.1c106.8,210.4,363.9,294.3,574.2,187.5c30.2-15.3,58.5-34.2,84.3-56.3l-137.9-106.8
	c-117.9,77.9-313.7,49-380.4-133.5L590.2,846.1z"/>
<path class="st3" d="M730.3,737.1c-17.8-55.6-17.8-106.8,0-162.4l-140.2-109c-51.2,102.3-66.8,246.9,0,380.4L730.3,737.1z"/>
<path class="st4" d="M730.3,574.7c48.9-153.5,258.1-242.5,398.2-111.2l122.4-120.1c-173.5-166.8-511.7-160.2-660.8,122.4
	L730.3,574.7z"/>
</svg>
