<svg id="Layer_1" data-name="Layer 1" xmlns="http://www.w3.org/2000/svg" viewBox="0 0 500 500"><defs><style>.cls-1{fill:#fff;}.cls-2{fill:#fefefe;}.cls-3{fill:#3d4085;}.cls-4{fill:#211e70;}.cls-5{fill:#3e4186;}.cls-6{fill:#3398fe;}.cls-7{fill:#98cb34;}.cls-8{fill:#3c3f85;}.cls-9{fill:#9ccd3a;}.cls-10{fill:#3e9efb;}.cls-11{fill:#44478a;}.cls-12{fill:#45488a;}.cls-13{fill:#46a2fe;}.cls-14{fill:#fbfbfc;}.cls-15{fill:#d2d1e1;}.cls-16{fill:#fafafb;}</style></defs><rect class="cls-1" width="500" height="500"/><path class="cls-2" d="M249,302.15c-55.83,0-111.66-.12-167.49.19-6,0-6.49-1.71-6.44-6.8.27-30.49.35-61-.06-91.47-.08-5.91,1.75-6.36,6.89-6.35q168.32.24,336.61-.06c6,0,6.49,1.71,6.44,6.79-.27,30.49-.35,61,.06,91.48.08,5.9-1.74,6.37-6.89,6.35C361.74,302.08,305.36,302.15,249,302.15Z"/><path class="cls-3" d="M322.39,239c0-5.14.06-9.9,0-14.66-.07-4.41,2.66-5.22,6.35-5.3,4.48-.1,3.62,3.07,3.63,5.57.06,14.43.09,28.86,0,43.3,0,6.13-3,8-8.62,4.76-2-1.15-2.5-1.26-4.41-.32-9,4.46-16.88,2.84-22.35-4.24-5.66-7.31-5.5-19,.37-26.14,5.72-6.95,13.56-8.3,22.45-3.88A26.5,26.5,0,0,0,322.39,239Z"/><path class="cls-4" d="M99.11,259a26.61,26.61,0,0,1,0-13.09c8.22-5.31,18.3-7,26.06-13.3,2.73-2.21,5-5.76,9.51-4.77,6.79,6,14.39,11.11,20.37,18-.32,2.3-1.82,3.86-3.55,5.16-14.23,10.72-30.42,13.14-47.69,10.84A6.9,6.9,0,0,1,99.11,259Z"/><path class="cls-5" d="M358.33,275c-11.8,0-20.18-7.72-20.87-18.68a20,20,0,0,1,18.09-21,18.31,18.31,0,0,1,20.25,14.6c1,5,.45,8.14-6.11,7.54-5.91-.55-11.91-.1-17.86-.12-4.69,0-4.34,2.38-2.11,4.91,4.2,4.74,9.7,5.59,14.36,1.55,4.1-3.57,7.53-2,9.59.68,2.4,3.11-1.8,4.89-3.81,6.65A15.84,15.84,0,0,1,358.33,275Z"/><path class="cls-3" d="M420.75,255.13c0,11.47-8.23,19.74-19.78,19.86-12,.12-20.37-8.2-20.22-20.11a19.44,19.44,0,0,1,20.08-19.66C412.2,235.32,420.73,243.84,420.75,255.13Z"/><path class="cls-6" d="M134.72,227.87C124,236,113.25,244.21,99.15,245.94c-.05-13.28-.13-26.57-.09-39.85,0-2-1-4.73,1.09-5.84,2.33-1.21,3.72,1.48,5.25,2.76C115.22,211.25,125,219.58,134.72,227.87Z"/><path class="cls-7" d="M99.11,259c20.65,3.84,39.62.74,56-13.16,4.31,1.77,2.51,3.72.17,5.7l-36,30.5c-7.15,1.46-14.41,3.76-20.48-2.7C98.4,272.58,97.73,265.79,99.11,259Z"/><path class="cls-8" d="M193.77,255.63c0-4.53.15-9.06,0-13.58-.23-5.58,5.13-7.47,7.06-5.22,4.22,4.9,6.31.69,9.14-.43,9-3.55,18.32,1.19,19.39,10.71.85,7.64.27,15.43.42,23.15.08,4.38-3.12,3.33-5.63,3.53-2.94.23-4.52-.69-4.42-4,.16-5.59.09-11.19,0-16.78-.1-4.39-1.61-8.09-6.72-8.39-4.82-.27-7.79,2.88-8.43,7.07-.84,5.49-.72,11.14-.73,16.71,0,3.3-.24,5.49-4.62,5.5s-5.76-1.34-5.47-5.5S193.77,259.9,193.77,255.63Z"/><path class="cls-3" d="M273,236.71c-5.17,11.87-9.85,23.18-15,34.25-2,4.36-10.41,4.22-12.43-.17-5.09-11.07-9.73-22.34-14.8-34.11,18.66-1.93,13.77,15.31,21.19,22.12C259.14,252.6,254.72,234.91,273,236.71Z"/><path class="cls-5" d="M187.29,255.11c0,4.27-.13,8.54,0,12.8.14,3.58-.14,6-5,6-4.64,0-5.28-2.07-5.2-5.85q.27-12.78,0-25.58c-.09-4.37,1.49-6.22,6.13-6.19,4.94,0,3.95,3.24,4,6C187.34,246.58,187.29,250.85,187.29,255.11Z"/><path class="cls-3" d="M286.88,255.61c0,4.27-.23,8.55.07,12.8s-1.25,5.52-5.5,5.5-4.68-2.16-4.63-5.49c.13-8.26.1-16.53,0-24.79,0-4.48,1.73-7.24,6.57-7.15,5.79.1,3.06,4.58,3.36,7.15C287.22,247.58,286.89,251.62,286.88,255.61Z"/><path class="cls-9" d="M76.27,273.2l18.3-27.93,1.6.46c0,6.21-.17,12.43.07,18.63.13,3.43-1.68,4.73-4.57,5.38C87,270.8,82.36,271.84,76.27,273.2Z"/><path class="cls-10" d="M98.75,279.37c6.64,2.29,13.62,2,20.48,2.7l-15.64,13.65c-3.13,2.74-4.85,1.72-5-2.08C98.48,288.89,98.69,284.13,98.75,279.37Z"/><path class="cls-11" d="M188.68,226.32c-.6,4-2.8,6.62-6.84,6.45-3.51-.15-6-2.32-6-6.18,0-4.15,2.43-6.37,6.57-6.31C186.32,220.34,188,222.94,188.68,226.32Z"/><path class="cls-12" d="M288.34,226.52c-.43,4.08-2.83,6.44-6.85,6.24a5.89,5.89,0,0,1-6-6.29c.12-4,2.63-6.4,6.82-6.19C286.12,220.47,288,222.85,288.34,226.52Z"/><path class="cls-13" d="M81,237.74c4.58-1.93,7.15.3,10,.48,1.41.08,3.54.5,3,2.64a9.1,9.1,0,0,1-2.47,3.92c-1.32,1.34-2.34-.14-3.26-.88C86,242.14,83.93,240.28,81,237.74Z"/><path class="cls-14" d="M322.83,255.61c-.43,5.75-3.31,9.86-9.82,9.91s-9.64-4.08-10.05-10.09c-.41-5.85,4.84-11.4,10.28-10.84C319.5,245.25,322.66,249.05,322.83,255.61Z"/><path class="cls-15" d="M141.8,246.19a2.17,2.17,0,0,1-2.36-2.48c.13-1.29,1.09-2.62,2.67-2.18a3.21,3.21,0,0,1,1.9,2.13A2,2,0,0,1,141.8,246.19Z"/><path class="cls-16" d="M348.77,250.52c4.88-8.92,11.41-9.14,17.36-.68C360.26,251.24,354.71,250.39,348.77,250.52Z"/><path class="cls-14" d="M410.5,256c-.51,5.67-3.47,9.69-10.14,9.48s-9.47-4.58-9.58-10.64c-.1-5.71,4.92-10.77,10.23-10.23C407.39,245.29,410.47,249.21,410.5,256Z"/></svg>