<svg id="Layer_1" data-name="Layer 1" xmlns="http://www.w3.org/2000/svg" viewBox="0 0 1316.91 183.59"><defs><style>.cls-1{fill:#0f33ff;}.cls-2{fill:#fff;}</style></defs><path class="cls-1" d="M173.18,65.51c0-14.78,0-29.56,0-44.35,0-7.82,5.2-14.1,13-15.95a15.83,15.83,0,0,1,17.6,8.53,23.28,23.28,0,0,1,2,9.46c.15,28.45.06,56.9.12,85.35a48.61,48.61,0,0,0,5.35,22.36A34.22,34.22,0,0,0,233,148.78a54.38,54.38,0,0,0,30.91.21c14.53-4.26,23.07-14.42,26.64-28.75a74.92,74.92,0,0,0,1.92-16.1c.3-11.42,0-22.85.18-34.28.12-8.48,7.49-15.18,16.29-15.15,8.59,0,15.87,6.84,15.94,15.25.11,13.9.9,27.88-.19,41.7-2.35,30-15.44,53.54-44.23,66.13-11.64,5.09-24,6.24-36.6,5.63-15.19-.74-29.2-5.06-41.51-14.17-15-11.08-23.71-26.16-27.16-44.24a128.83,128.83,0,0,1-1.93-21.14C173,91.09,173.18,78.3,173.18,65.51Z"/><path class="cls-1" d="M754.65,66.1c0-14.94,0-29.88,0-44.83A16.17,16.17,0,0,1,787,20c.06,1.36.08,2.72.08,4.08,0,26.77,0,53.54,0,80.31,0,8.18,1,16.24,4.29,23.85,5.48,12.68,15.35,19.65,28.73,21.93,9.08,1.54,18.14,1.34,26.93-1.69,13.76-4.73,21.69-14.81,25-28.57a73.4,73.4,0,0,0,1.61-15.4c.23-10.23,0-20.46.09-30.69,0-5,.67-9.85,4.35-13.79a16.42,16.42,0,0,1,18-4.27A16.18,16.18,0,0,1,906.4,70.8c0,13,.64,26.09-.14,39.07-1.67,27.79-12.62,50.62-37.8,64.8-13.34,7.51-28,9.48-43.08,8.76-14.25-.68-27.53-4.5-39.37-12.58-16.07-11-25.53-26.41-29.3-45.26a122.65,122.65,0,0,1-2-20.89C754.43,91.84,754.65,79,754.65,66.1Z"/><path class="cls-1" d="M448.1,0c18.89.45,35.75,6,49.84,18.76a35.36,35.36,0,0,1,6.57,7.87c5.08,8.52-.15,20.62-9.7,22.7-5.21,1.14-9.56-.95-13.33-4.39-5.79-5.28-12.11-9.73-19.74-11.87-11.7-3.29-23.23-3.47-33.92,3.27a18.19,18.19,0,0,0-8.94,14.78c-.3,4.52,1.69,7.86,4.87,10.67,6.32,5.61,14,8.84,21.64,12.14C457.11,79,469,83.68,480.56,89.09c9.39,4.39,17.81,10.34,24.37,18.61,6.27,7.91,8.88,17,8.71,27-.41,24.34-17.16,43.81-43.19,47.83-9.4,1.45-18.76,1.76-28-1-5.84-1.74-11.38-4.17-14.22-10.06-3.4-7-.13-18.84,9.77-20.17,4.32-.57,8.85.21,13.27.63,8.42.81,16.44.38,23.2-5.65,9.28-8.29,8.92-20.27-1-27.66-7-5.2-15.08-8.29-23.11-11.44-11.36-4.46-22.87-8.58-34-13.46-9.47-4.15-17.73-10.23-23.56-19-5.61-8.48-7.37-17.89-6.25-27.89C389.15,23.21,407,6.6,431,2.07,436.65,1,442.4.67,448.1,0Z"/><path class="cls-1" d="M983.07,92c0-23.18.16-46.36-.08-69.53a17.13,17.13,0,0,1,17.74-17.69c21.26.32,42.53-.07,63.79.17C1080,5.12,1093,11,1102.83,23.09c7,8.6,11,18.63,12.8,29.53a64.59,64.59,0,0,1-8.12,44.47c-3.54,6.11-8.88,9.09-15.91,8.55-6.41-.48-12.26-5.54-14.07-12A16.93,16.93,0,0,1,1078.7,82c2-4.5,4.5-9,5.14-13.77,1.32-9.69-.3-19-8-26.16-3.17-3-7.15-4.11-11.37-4.39-3.58-.24-7.18-.33-10.77-.34-11.59,0-23.18,0-34.77,0-3.19,0-3.2,0-3.2,3.16V160.82c0,6.63-2.08,12.3-8,15.86-5.44,3.24-11.09,3.38-16.6.12a15.57,15.57,0,0,1-8-14.08C983,139.15,983.07,115.57,983.07,92Z"/><path class="cls-1" d="M1183.44,91.83c0-23,0-46,0-69,0-5.68,1.48-10.55,6-14.22a15.65,15.65,0,0,1,10.15-3.69c22.22,0,44.45-.41,66.66.16,18,.45,32,8.89,41.42,24.45,5.71,9.48,8.44,19.85,9.17,30.87.88,13.37-2.52,25.6-9.15,37.05A16,16,0,0,1,1289,105c-7.23-2.21-12.3-9-11.66-16.47a21.77,21.77,0,0,1,2.84-8.51c5.33-9.42,5.74-19.09,2.1-29-3-8.21-8.9-13-17.73-13.33-8.06-.35-16.14-.3-24.2-.36-7.12-.05-14.23.07-21.34-.05-2.38,0-3.15.69-3.14,3.15q.11,60.89,0,121.77c0,8.69-5.12,14.9-13.57,16.63-8.94,1.83-18.41-5.25-18.67-14.35-.3-10.7-.18-21.41-.2-32.12Q1183.41,112.09,1183.44,91.83Z"/><path class="cls-1" d="M644,91.91q0,35,0,70c0,6.85-2.79,12.23-9,15.45-10.3,5.33-23.12-2.16-23.17-13.74-.13-32-.07-64.09-.08-96.14,0-9-.08-18.07.05-27.1,0-2.48-.87-3.14-3.2-3.13-11.75,0-23.51.07-35.26-.16-7.14-.15-13.77-7.29-14.35-14.4C558,12,567,4.62,576,4.79c16.94.32,33.9.07,50.85.1,10.63,0,17.11,6.55,17.11,17.25Q644,57,644,91.91Z"/><path class="cls-1" d="M97.47,98.47c0,10.79.34,21.59-.09,32.37-.52,12.75-4,24.68-12.1,34.91A44.34,44.34,0,0,1,55.09,183c-14.6,1.85-28.33-.54-40.62-9.07A39.85,39.85,0,0,1,2,160.8c-5.25-9.35.23-21.4,10.76-23.32,6.4-1.17,11.75,1.58,16.25,5.92,4.29,4.13,9.14,6.86,15.15,7.47,9.3.93,16.4-2.54,19-12.09A58.5,58.5,0,0,0,65,124.15c.2-18.94,0-37.88.1-56.82,0-8.44,4.38-14.46,11.8-16.6,10-2.88,20.45,4.73,20.55,15.14.1,10.87,0,21.74,0,32.6Z"/><path class="cls-2" d="M97.64,16.66a16.38,16.38,0,1,1-32.76-.27C65,7.48,72.61,0,81.29.13A16.49,16.49,0,0,1,97.64,16.66Z"/><path class="cls-2" d="M890.32,4.75a16.23,16.23,0,0,1,16.2,16.31,16.52,16.52,0,0,1-16.15,16.5c-8.9.16-16.7-7.57-16.7-16.56A16.53,16.53,0,0,1,890.32,4.75Z"/><path class="cls-2" d="M325.11,20.91a16.36,16.36,0,1,1-32.71.24,16.36,16.36,0,0,1,32.71-.24Z"/><path class="cls-2" d="M680.44,4.75A16.4,16.4,0,0,1,696.81,21a16.44,16.44,0,1,1-32.88-.12A16.46,16.46,0,0,1,680.44,4.75Z"/><path class="cls-2" d="M399.3,128a16.25,16.25,0,1,1-16.24,16.22A16.12,16.12,0,0,1,399.3,128Z"/><path class="cls-2" d="M1032.76,107.77a16.27,16.27,0,1,1,16.36,16.44A16.19,16.19,0,0,1,1032.76,107.77Z"/><path class="cls-2" d="M1265.52,108.09c-.26,9.36-7.6,16.45-16.64,16.1a16.34,16.34,0,1,1,1-32.66A16,16,0,0,1,1265.52,108.09Z"/></svg>