<svg id="Layer_1" data-name="Layer 1" xmlns="http://www.w3.org/2000/svg" viewBox="0 0 1920 1080"><defs><style>.cls-1{fill:#231f20;}.cls-2{fill:#25f4ee;}.cls-3{fill:#fe2c55;}</style></defs><rect class="cls-1" width="1920" height="1080"/><path class="cls-2" d="M877.31,566.24v-33a243.64,243.64,0,0,0-34.65-3A256.9,256.9,0,0,0,695.39,998c-96.77-103.56-91.26-265.95,12.3-362.72A256.68,256.68,0,0,1,877.3,566.24Z"/><path class="cls-2" d="M883.54,940.36A117.48,117.48,0,0,0,1000.76,828V267.92h102.32a192.43,192.43,0,0,1-3-35.46H960.15V792A117.49,117.49,0,0,1,842.93,905.17a119.06,119.06,0,0,1-54.14-13.54A117.45,117.45,0,0,0,883.54,940.36ZM1294.2,458V426.82a191,191,0,0,1-105.84-31.94A194,194,0,0,0,1294.2,458Z"/><path class="cls-3" d="M1188.36,394.88a192.68,192.68,0,0,1-47.92-127.23h-37.36A193.8,193.8,0,0,0,1188.36,394.88ZM842.66,670.19a117.48,117.48,0,0,0-54.14,221.44,117.22,117.22,0,0,1,95-186,123.74,123.74,0,0,1,34.65,5.44V568.68A245.06,245.06,0,0,0,883.54,566h-6.23V674.25A120.53,120.53,0,0,0,842.66,670.19Z"/><path class="cls-3" d="M1294.2,458V566.24a332.17,332.17,0,0,1-194.1-63.07V787.68c-.3,142-115.47,256.9-257.44,256.9A254.67,254.67,0,0,1,695.39,998c96.61,103.91,259.16,109.83,363.07,13.22a256.89,256.89,0,0,0,82-188.09V539.44a332.71,332.71,0,0,0,194.37,62.27V462.28A198.65,198.65,0,0,1,1294.2,458Z"/><path d="M1100.1,787.68V503.17a332.14,332.14,0,0,0,194.37,62.26V457.15a194,194,0,0,1-106.11-62.27,193.8,193.8,0,0,1-85.28-127.23H1000.76V828a117.49,117.49,0,0,1-212.52,64.16,117.49,117.49,0,0,1,54.15-221.45A120.53,120.53,0,0,1,877,676.15V567.86C735.32,570.27,622.39,687.1,624.79,828.81A256.64,256.64,0,0,0,695.12,1001a254.73,254.73,0,0,0,147.54,43.58c142,0,257.14-114.93,257.44-256.9Z"/></svg>