<svg id="Layer_1" data-name="Layer 1" xmlns="http://www.w3.org/2000/svg" viewBox="0 0 500 500"><defs><style>.cls-1{fill:#fff;}.cls-2{fill:#fbbd71;}</style></defs><rect class="cls-1" width="500" height="500"/><path class="cls-2" d="M275.32,184.56c-6.75,3.38-9.68,9.68-9.68,26.79a27,27,0,0,1,8.78-5.41,36,36,0,0,0,8.78-4.83c5.85-4.39,6.75-9.68,6.75-18.91C289.84,182.2,280.61,181.64,275.32,184.56Z"/><path d="M234,188.5c-5.85,4.84-7.32,13.17-7.32,13.17l-18.9,72.47-15.53-59.31c-1.47-6.3-4.39-14.06-8.78-19.46-5.4-6.87-16.66-7.32-18-7.32-1,0-12.15.45-18,7.32-4.39,5.4-7.32,13.16-8.78,19.46l-14.63,59.31-18.91-72.47a26.64,26.64,0,0,0-7.31-13.17C88.62,180.17,75,182.2,75,182.2l36,135.61s11.71,1,17.56-1.91c7.76-3.94,11.7-6.76,16.09-25.33,4.39-16.54,16.1-64.71,17-68.08.45-1.47,1.46-5.85,4.39-5.85s3.93,3.93,4.38,5.85c1,3.37,12.61,51.54,17,68.08,4.84,18.46,8.21,21.39,16.09,25.33,5.85,2.92,17.56,1.91,17.56,1.91L256.86,182.2S243.25,180.29,234,188.5ZM289.84,204a27,27,0,0,1-7.32,6.3c-3.37,1.92-6.3,2.93-9.67,4.84-5.86,2.93-7.32,5.85-7.32,10.24v92s9.23,1,15.08-1.91c7.77-3.94,9.23-7.77,9.23-24.31V204Zm89.47,46.26L425,182.65s-18.91-3.38-28.7,5.4c-6.3,5.4-12.6,15.53-12.6,15.53l-16.55,24.31c-1,1.46-1.91,2.48-3.37,2.48a4.41,4.41,0,0,1-3.38-2.48l-16.54-24.31s-6.75-9.68-12.61-15.53c-9.67-8.78-28.69-5.4-28.69-5.4l44.22,67.52L301.54,317.7s19.92,2.47,29.71-6.31c6.31-5.4,12.16-14.63,12.16-14.63L360,272.46c1-1.47,1.91-2.48,3.38-2.48a4.37,4.37,0,0,1,3.37,2.48l16.55,24.3s6.3,9.23,12.15,14.63c9.68,8.78,29.15,6.31,29.15,6.31Z"/></svg>